<svg xmlns="http://www.w3.org/2000/svg" viewBox="0 0 256 256" role="img" aria-label="Prukka - teal winged helmet logo">
  <title>Prukka</title>

  <g fill="none" stroke="#0f766e" stroke-linecap="round" stroke-linejoin="round">
    <g transform="translate(18,-16)">
      <path
        d="M120 178 C100 163 74 159 62 149 C55 143 52 136 53 129 C43 126 34 120 31 109 C18 101 8 86 11 72 C14 57 29 55 40 66 C64 97 108 107 149 111 C170 113 184 124 188 141 C192 158 182 174 164 183 C147 191 131 188 120 178 Z"
        fill="#ffffff"
        stroke-width="7"
      />
      <path d="M53 129 C68 137 88 143 109 146" stroke-width="7"/>
      <path d="M62 149 C78 157 98 162 119 164" stroke-width="7"/>
      <path d="M31 109 C48 122 71 131 95 136" stroke-width="7"/>
    </g>

    <path
      d="M107 151 C133 132 178 139 204 170 C218 187 214 202 194 210 C168 220 113 219 94 203 C82 193 82 177 92 165 C96 159 101 155 107 151 Z"
      fill="#0f766e"
      stroke-width="7"
    />
    <path d="M120.8 204.6 L122.8 205.0 L124.9 205.4 L126.9 205.8 L129.1 206.1 L131.2 206.3 L133.4 206.6 L135.6 206.8 L137.9 207.0 L140.1 207.2 L142.4 207.3 L144.7 207.4 L147.0 207.4 L149.2 207.5 L151.5 207.5 L153.8 207.4 L156.1 207.4 L158.3 207.3 L160.6 207.2 L162.8 207.0 L165.0 206.9 L167.2 206.6 L169.3 206.4 L171.4 206.1 L173.4 205.8 L175.5 205.5 L177.4 205.2 L179.3 204.8 L181.2 204.4 L183.0 204.0 L184.7 203.6 L186.3 203.1 L187.9 202.6 L189.4 202.1 L190.8 201.6 L192.7 200.8 L194.5 199.9 L196.1 199.0 L197.5 198.1 L198.7 197.1 L199.8 196.2 L200.7 195.3 L201.4 194.4 L202.0 193.6 L202.4 192.8 L202.8 192.0 L203.0 191.2 L203.2 190.3 L203.3 189.4 L203.3 188.5 L203.2 187.5 L203.0 186.3 L202.6 185.1 L202.1 183.8 L201.5 182.3 L200.6 180.8 L199.6 179.2 L198.4 177.5 L197.1 175.7 L196.6 175.2 L196.1 174.6 L195.6 174.1 L195.1 173.5 L194.6 173.0 L194.1 172.4 L193.6 171.9 L193.1 171.3" stroke="#ffffff" stroke-width="6"/>

    <path
      d="M120 178 C100 163 74 159 62 149 C55 143 52 136 53 129 C43 126 34 120 31 109 C18 101 8 86 11 72 C14 57 29 55 40 66 C64 97 108 107 149 111 C170 113 184 124 188 141 C192 158 182 174 164 183 C147 191 131 188 120 178 Z"
      fill="#ffffff"
      stroke-width="7"
    />
    <path d="M53 129 C68 137 88 143 109 146" stroke-width="7"/>
    <path d="M62 149 C78 157 98 162 119 164" stroke-width="7"/>
    <path d="M31 109 C48 122 71 131 95 136" stroke-width="7"/>
    <circle cx="116" cy="174" r="22" fill="#ffffff" stroke-width="7"/>
  </g>

  <circle cx="116" cy="174" r="12" fill="#0f766e"/>
</svg>
